<svg width="12" height="16" viewBox="0 0 12 16" fill="none" xmlns="http://www.w3.org/2000/svg">
<path d="M10.5 8.00001C10.5 8.09471 10.4798 8.18745 10.4418 8.26745C10.4038 8.34745 10.3495 8.41141 10.2853 8.45189L3.16031 12.9519C3.11581 12.98 3.06758 12.9961 3.0184 12.9994C2.96921 13.0027 2.92003 12.993 2.87365 12.9709C2.82727 12.9488 2.78461 12.9148 2.7481 12.8707C2.71159 12.8266 2.68194 12.7734 2.66086 12.7141C2.63978 12.6547 2.62767 12.5904 2.62522 12.5249C2.62277 12.4593 2.63004 12.3937 2.6466 12.3319C2.66316 12.27 2.6887 12.2131 2.72175 12.1645C2.7548 12.1158 2.79471 12.0763 2.83922 12.0481L9.24891 8.00001L2.83969 3.95189C2.79518 3.92378 2.75526 3.88425 2.72222 3.83557C2.68917 3.78689 2.66363 3.73001 2.64707 3.66817C2.63051 3.60633 2.62324 3.54075 2.62569 3.47517C2.62813 3.40959 2.64025 3.34529 2.66133 3.28595C2.68241 3.22661 2.71205 3.17339 2.74856 3.12932C2.78507 3.08525 2.82774 3.05121 2.87412 3.02913C2.92049 3.00704 2.96968 2.99736 3.01887 3.00062C3.06805 3.00388 3.11628 3.02003 3.16078 3.04814L10.2858 7.54814C10.3499 7.58871 10.4041 7.65271 10.442 7.7327C10.4799 7.81269 10.5 7.90539 10.5 8.00001Z" fill="#515151"/>
</svg>
