<svg width="12" height="16" viewBox="0 0 12 16" fill="none" xmlns="http://www.w3.org/2000/svg">
<path d="M1.5 7.99999C1.50002 7.90529 1.52021 7.81255 1.55821 7.73255C1.59622 7.65255 1.65048 7.58859 1.71469 7.54811L8.83969 3.04811C8.88419 3.02 8.93242 3.00385 8.9816 3.00059C9.03079 2.99733 9.07997 3.00701 9.12635 3.0291C9.17273 3.05118 9.21539 3.08523 9.2519 3.12929C9.28841 3.17336 9.31806 3.22658 9.33914 3.28592C9.36022 3.34526 9.37233 3.40956 9.37478 3.47514C9.37723 3.54072 9.36996 3.60631 9.3534 3.66814C9.33684 3.72998 9.3113 3.78686 9.27825 3.83554C9.2452 3.88422 9.20529 3.92375 9.16078 3.95186L2.75109 7.99999L9.16031 12.0481C9.20482 12.0762 9.24474 12.1157 9.27778 12.1644C9.31083 12.2131 9.33637 12.27 9.35293 12.3318C9.36949 12.3937 9.37676 12.4592 9.37431 12.5248C9.37187 12.5904 9.35975 12.6547 9.33867 12.714C9.31759 12.7734 9.28795 12.8266 9.25144 12.8707C9.21493 12.9147 9.17226 12.9488 9.12588 12.9709C9.07951 12.993 9.03032 13.0026 8.98113 12.9994C8.93195 12.9961 8.88372 12.98 8.83922 12.9519L1.71422 8.45186C1.6501 8.41129 1.59593 8.34729 1.55801 8.2673C1.52009 8.18731 1.49998 8.09461 1.5 7.99999Z" fill="#515151"/>
</svg>
