<svg width="20" height="20" viewBox="0 0 20 20" fill="none" xmlns="http://www.w3.org/2000/svg">
<path d="M18.0406 16.5626C16.8508 14.5055 15.0172 13.0305 12.8773 12.3313C13.9358 11.7012 14.7582 10.741 15.2181 9.59833C15.6781 8.45561 15.7502 7.19349 15.4235 6.0058C15.0967 4.81811 14.3891 3.77051 13.4094 3.0239C12.4296 2.27728 11.2318 1.87292 10 1.87292C8.76818 1.87292 7.57041 2.27728 6.59064 3.0239C5.61087 3.77051 4.90328 4.81811 4.57651 6.0058C4.24975 7.19349 4.32189 8.45561 4.78186 9.59833C5.24183 10.741 6.06419 11.7012 7.12265 12.3313C4.98281 13.0297 3.14922 14.5047 1.95937 16.5626C1.91574 16.6337 1.8868 16.7129 1.87425 16.7954C1.86171 16.8779 1.86582 16.9621 1.88634 17.043C1.90687 17.1239 1.94338 17.1998 1.99374 17.2664C2.0441 17.333 2.10728 17.3888 2.17955 17.4305C2.25182 17.4722 2.33172 17.4991 2.41454 17.5095C2.49735 17.5198 2.5814 17.5135 2.66173 17.4909C2.74206 17.4682 2.81705 17.4297 2.88225 17.3776C2.94746 17.3255 3.00158 17.2609 3.0414 17.1876C4.51328 14.6438 7.11484 13.1251 10 13.1251C12.8852 13.1251 15.4867 14.6438 16.9586 17.1876C16.9984 17.2609 17.0525 17.3255 17.1177 17.3776C17.183 17.4297 17.2579 17.4682 17.3383 17.4909C17.4186 17.5135 17.5026 17.5198 17.5855 17.5095C17.6683 17.4991 17.7482 17.4722 17.8204 17.4305C17.8927 17.3888 17.9559 17.333 18.0063 17.2664C18.0566 17.1998 18.0931 17.1239 18.1136 17.043C18.1342 16.9621 18.1383 16.8779 18.1257 16.7954C18.1132 16.7129 18.0843 16.6337 18.0406 16.5626ZM5.625 7.50005C5.625 6.63476 5.88159 5.7889 6.36232 5.06943C6.84305 4.34997 7.52633 3.78921 8.32576 3.45808C9.12518 3.12694 10.0049 3.0403 10.8535 3.20911C11.7022 3.37792 12.4817 3.7946 13.0936 4.40646C13.7054 5.01831 14.1221 5.79786 14.2909 6.64653C14.4597 7.4952 14.3731 8.37486 14.042 9.17429C13.7108 9.97372 13.1501 10.657 12.4306 11.1377C11.7112 11.6185 10.8653 11.8751 10 11.8751C8.84006 11.8738 7.72798 11.4125 6.90778 10.5923C6.08757 9.77207 5.62624 8.65999 5.625 7.50005Z" fill="#5C09E3"/>
</svg>
